# xmcd
#
# Track frame offsets:
#	150
#	3766
#	44562
#	71271
#	100502
#	123208
#	146706
#	176207
#	190624
#	248800
#	271115
#	306313
#	333200
#
# Disc length: 4744 seconds
#
# Revision: 1
# Processed by: cddbd v1.5.2PL0 Copyright (c) Steve Scherf et al.
# Submitted via: audiograbber 1.83.01
#
DISCID=a912860d
DTITLE=Grateful Dead - 71-11-15 Austin Municipal Auditorium, Austin TX
DYEAR=1900
DGENRE=
TTITLE0=Announcements
TTITLE1=Truckin'
TTITLE2=Bertha
TTITLE3=Playing In The Band
TTITLE4=Deal
TTITLE5=Jack Straw
TTITLE6=Loser
TTITLE7=BIODTL
TTITLE8=Dark Star
TTITLE9=El Paso
TTITLE10=Jam
TTITLE11=Casey Jones
TTITLE12=One More Saturday Night
EXTD=
EXTT0=
EXTT1=
EXTT2=
EXTT3=
EXTT4=
EXTT5=
EXTT6=
EXTT7=
EXTT8=
EXTT9=
EXTT10=
EXTT11=
EXTT12=
PLAYORDER=
